<svg width="22" height="23" viewBox="0 0 22 23" fill="none" xmlns="http://www.w3.org/2000/svg">
<path d="M4.10719 13.1429H16.4286C19.1509 13.1429 21.3572 10.9366 21.3572 8.21429C21.3572 5.49203 19.1509 3.28572 16.4286 3.28572C16.3991 3.28572 16.3727 3.29397 16.3432 3.29397C15.2064 1.33409 13.1084 0 10.6786 0C7.61143 0 5.05674 2.10947 4.33248 4.95157C4.25675 4.9468 4.18451 4.92865 4.10732 4.92865C1.83849 4.92865 0.000175476 6.76696 0.000175476 9.03579C0.000175476 11.3046 1.83849 13.1429 4.10732 13.1429L4.10719 13.1429Z" fill="black"/>
<path d="M0 14.7857H21.3571V16.4286H0V14.7857Z" fill="black"/>
<path d="M0 18.0714H21.3571V19.7143H0V18.0714Z" fill="black"/>
<path d="M0 21.3572H21.3571V23H0V21.3572Z" fill="black"/>
</svg>
