<svg width="20" height="25" viewBox="0 0 20 25" fill="none" xmlns="http://www.w3.org/2000/svg">
<path d="M19.9783 9.52531C19.6288 4.17716 15.2438 0 10.001 0C4.7582 0 0.373206 4.1771 0.0236812 9.52531C-0.0716266 10.886 0.118988 12.2468 0.627461 13.5759C1.10399 14.8417 1.86668 16.0758 2.8836 17.152L9.39746 24.7152C9.55638 24.9051 9.77869 25 10.0012 25C10.2238 25 10.4461 24.9051 10.605 24.7152L17.1189 17.152C18.1358 16.0442 18.8982 14.8419 19.375 13.5759C19.8513 12.2468 20.0736 10.8862 19.9783 9.52531ZM10.001 12.6583C8.31694 12.6583 6.91884 11.2343 6.91884 9.49372C6.91884 7.75316 8.28505 6.32917 10.001 6.32917C11.7167 6.32917 13.0832 7.75316 13.0832 9.49372C13.0832 11.2343 11.685 12.6583 10.001 12.6583Z" fill="black"/>
<path d="M19.9783 9.52531C19.6288 4.17716 15.2438 0 10.001 0C4.7582 0 0.373206 4.1771 0.0236812 9.52531C-0.0716266 10.886 0.118988 12.2468 0.627461 13.5759C1.10399 14.8417 1.86668 16.0758 2.8836 17.152L9.39746 24.7152C9.55638 24.9051 9.77869 25 10.0012 25C10.2238 25 10.4461 24.9051 10.605 24.7152L17.1189 17.152C18.1358 16.0442 18.8982 14.8419 19.375 13.5759C19.8513 12.2468 20.0736 10.8862 19.9783 9.52531ZM10.001 12.6583C8.31694 12.6583 6.91884 11.2343 6.91884 9.49372C6.91884 7.75316 8.28505 6.32917 10.001 6.32917C11.7167 6.32917 13.0832 7.75316 13.0832 9.49372C13.0832 11.2343 11.685 12.6583 10.001 12.6583Z" fill="black"/>
</svg>
