<svg width="23" height="22" viewBox="0 0 23 22" fill="none" xmlns="http://www.w3.org/2000/svg">
<path d="M16.4257 11.4981C16.3962 11.4981 16.3698 11.5063 16.3403 11.5063C15.2037 9.54679 13.1061 8.21291 10.6767 8.21291C7.61 8.21291 5.05573 10.322 4.33158 13.1637C4.25587 13.1589 4.18364 13.1407 4.10646 13.1407C1.83801 13.1407 0 14.9788 0 17.2472C0 19.5157 1.83801 21.3537 4.10646 21.3537H16.4258C19.1477 21.3537 21.3536 19.1477 21.3536 16.4259C21.3536 13.7041 19.1477 11.4982 16.4258 11.4982L16.4257 11.4981Z" fill="black"/>
<path d="M21.5656 5.6702C19.2249 5.6702 17.326 3.77297 17.326 1.43064C17.326 0.926324 17.4294 0.448379 17.5906 0C15.9577 0.588092 14.7834 2.137 14.7834 3.97337C14.7834 6.31569 16.6806 8.21292 19.0229 8.21292C20.8593 8.21292 22.4082 7.03857 22.9963 5.40401C22.5479 5.56662 22.07 5.6702 21.5656 5.6702L21.5656 5.6702Z" fill="black"/>
</svg>
