<svg width="24" height="22" viewBox="0 0 24 22" fill="none" xmlns="http://www.w3.org/2000/svg">
<path d="M16.5933 11.6154C16.5635 11.6154 16.5369 11.6238 16.507 11.6238C15.3588 9.64422 13.2398 8.29673 10.7856 8.29673C7.68766 8.29673 5.10733 10.4274 4.37579 13.298C4.2993 13.2932 4.22634 13.2749 4.14837 13.2749C1.85676 13.2749 0 15.1316 0 17.4232C0 19.7148 1.85676 21.5716 4.14837 21.5716H16.5935C19.3431 21.5716 21.5715 19.3431 21.5715 16.5936C21.5715 13.844 19.3431 11.6155 16.5935 11.6155L16.5933 11.6154Z" fill="black"/>
<path d="M17.4282 10.0078C17.8896 10.0659 18.3292 10.182 18.7557 10.3296C19.4676 9.58459 19.9123 8.58064 19.9123 7.46726C19.9123 5.17566 18.0555 3.31889 15.7639 3.31889C13.7379 3.31889 12.0569 4.77248 11.6935 6.6924C13.9651 6.94945 16.0526 8.15414 17.4282 10.0078V10.0078Z" fill="black"/>
<path d="M14.934 0H16.5934V1.65935H14.934V0Z" fill="black"/>
<path d="M21.5714 6.63739H23.2307V8.29674H21.5714V6.63739Z" fill="black"/>
<path d="M19.2834 2.77476L20.4568 1.60136L21.6302 2.77476L20.4568 3.94816L19.2834 2.77476Z" fill="black"/>
<path d="M9.89813 2.77386L11.0715 1.60046L12.2449 2.77386L11.0715 3.94726L9.89813 2.77386Z" fill="black"/>
</svg>
