<svg width="21" height="23" viewBox="0 0 21 23" fill="none" xmlns="http://www.w3.org/2000/svg">
<path d="M16.1537 3.23078C16.1247 3.23078 16.0987 3.23889 16.0697 3.23889C14.9519 1.31178 12.8891 0 10.4999 0C7.48398 0 4.97201 2.0742 4.25986 4.86877C4.1854 4.86408 4.11437 4.84623 4.03846 4.84623C1.80757 4.84623 0 6.6538 0 8.88469C0 11.1156 1.80757 12.9232 4.03846 12.9232H16.1538C18.8306 12.9232 21 10.7537 21 8.077C21 5.40026 18.8306 3.23085 16.1538 3.23085L16.1537 3.23078Z" fill="black"/>
<path d="M4.84601 14.5385H6.46139V17.7692H4.84601V14.5385Z" fill="black"/>
<path d="M4.84601 19.3846H6.46139V22.6154H4.84601V19.3846Z" fill="black"/>
<path d="M9.6922 14.5385H11.3076V17.7692H9.6922V14.5385Z" fill="black"/>
<path d="M9.6922 19.3846H11.3076V22.6154H9.6922V19.3846Z" fill="black"/>
<path d="M14.5383 14.5385H16.1537V17.7692H14.5383V14.5385Z" fill="black"/>
<path d="M14.5383 19.3846H16.1537V22.6154H14.5383V19.3846Z" fill="black"/>
</svg>
