<svg width="24" height="25" viewBox="0 0 24 25" fill="none" xmlns="http://www.w3.org/2000/svg">
<path fill-rule="evenodd" clip-rule="evenodd" d="M18.568 21.1094C16.6098 22.7609 14.1157 23.7501 11.3998 23.7501C5.10382 23.7501 0 18.4335 0 11.8748C0 5.31649 5.10392 0 11.3998 0C17.6962 0 22.8001 5.3166 22.8001 11.8748C22.8001 14.7039 21.8504 17.3016 20.265 19.3417L23.6486 22.8661C24.1171 23.3543 24.1171 24.1458 23.6486 24.634C23.1799 25.122 22.4201 25.122 21.9515 24.634L18.568 21.1094ZM2.39968 11.8746C2.39968 6.69699 6.42925 2.49951 11.3998 2.49951C16.3703 2.49951 20.3999 6.69699 20.3999 11.8746C20.3999 14.3908 19.4482 16.6756 17.8995 18.3595C17.8477 18.3984 17.7981 18.4422 17.7515 18.4909C17.7047 18.5395 17.6627 18.5912 17.6253 18.6452C16.0087 20.2584 13.8153 21.2497 11.3998 21.2497C6.4293 21.2497 2.39973 17.0522 2.39973 11.8746L2.39968 11.8746Z" fill="#C4C4C4"/>
</svg>
