<svg width="23" height="21" viewBox="0 0 23 21" fill="none" xmlns="http://www.w3.org/2000/svg">
<path d="M10.3846 0H12.1154V3.46154H10.3846V0Z" fill="black"/>
<path d="M0 10.3846H3.46154V12.1154H0V10.3846Z" fill="black"/>
<path d="M19.0385 10.3846H22.5V12.1154H19.0385V10.3846Z" fill="black"/>
<path d="M2.6832 3.90659L3.9071 2.68269L6.3547 5.1303L5.1308 6.3542L2.6832 3.90659Z" fill="black"/>
<path d="M16.1456 5.13148L18.5932 2.68388L19.8171 3.90778L17.3695 6.35538L16.1456 5.13148Z" fill="black"/>
<path d="M11.25 5.19231C7.90439 5.19231 5.19232 7.90437 5.19232 11.25C5.19232 11.5459 5.23907 11.8299 5.27886 12.1154H17.2192C17.2607 11.8299 17.3075 11.5459 17.3075 11.25C17.3075 7.90437 14.5954 5.19231 11.2498 5.19231H11.25Z" fill="black"/>
<path d="M6.92307 20.7692H15.5769L11.25 15.5769L6.92307 20.7692Z" fill="black"/>
</svg>
