<svg width="22" height="24" viewBox="0 0 22 24" fill="none" xmlns="http://www.w3.org/2000/svg">
<path d="M8.46141 15.2308L5.07679 20.3077H8.46141L6.7691 23.6923L13.5383 18.6154H10.1537L13.5383 15.2308H8.46141Z" fill="black"/>
<path d="M16.9229 3.38463C16.8925 3.38463 16.8653 3.39313 16.8349 3.39313C15.6639 1.37425 13.5028 0 10.9998 0C7.84036 0 5.20877 2.17297 4.46271 5.10062C4.3847 5.0957 4.31029 5.07701 4.23077 5.07701C1.89364 5.07701 0 6.97065 0 9.30778C0 11.6449 1.89364 13.5385 4.23077 13.5385H16.9231C19.7273 13.5385 22 11.2658 22 8.46162C22 5.65742 19.7273 3.3847 16.9231 3.3847L16.9229 3.38463Z" fill="black"/>
</svg>
